HIERARCHY
ROOT Hips
{
 OFFSET 0.000000 0.000000 0.000000
 CHANNELS 6 Xposition Yposition Zposition Yrotation Xrotation Zrotation
 JOINT Chest
 {
  OFFSET 0.000000 10.080317 -0.001081
  CHANNELS 3 Yrotation Xrotation Zrotation
  JOINT Chest2
  {
   OFFSET 0.000000 11.096852 0.001963
   CHANNELS 3 Yrotation Xrotation Zrotation
   JOINT Chest3
   {
    OFFSET 0.000000 10.026525 0.000000
    CHANNELS 3 Yrotation Xrotation Zrotation
    JOINT Chest4
    {
     OFFSET 0.000000 10.026525 0.000000
     CHANNELS 3 Yrotation Xrotation Zrotation
     JOINT Neck
     {
      OFFSET 0.000000 14.108171 0.000000
      CHANNELS 3 Yrotation Xrotation Zrotation
      JOINT Head
      {
       OFFSET 0.000000 9.333493 0.004668
       CHANNELS 3 Yrotation Xrotation Zrotation
       End Site
       {
        OFFSET 0.000000 17.851786 0.002438
       }
      }
     }
     JOINT RightCollar
     {
      OFFSET -3.071622 7.873185 0.000000
      CHANNELS 3 Yrotation Xrotation Zrotation
      JOINT RightShoulder
      {
       OFFSET -14.378659 0.000000 0.000000
       CHANNELS 3 Yrotation Xrotation Zrotation
       JOINT RightElbow
       {
        OFFSET -30.778728 0.000000 0.000000
        CHANNELS 3 Yrotation Xrotation Zrotation
        JOINT RightWrist
        {
         OFFSET -25.164217 0.000000 0.000000
         CHANNELS 3 Yrotation Xrotation Zrotation
         End Site
         {
          OFFSET -18.796788 0.000000 0.000000
         }
        }
       }
      }
     }
     JOINT LeftCollar
     {
      OFFSET 3.071622 7.873185 0.000000
      CHANNELS 3 Yrotation Xrotation Zrotation
      JOINT LeftShoulder
      {
       OFFSET 14.378659 0.000000 0.000000
       CHANNELS 3 Yrotation Xrotation Zrotation
       JOINT LeftElbow
       {
        OFFSET 30.778728 0.000000 0.000000
        CHANNELS 3 Yrotation Xrotation Zrotation
        JOINT LeftWrist
        {
         OFFSET 25.164217 0.000000 0.000000
         CHANNELS 3 Yrotation Xrotation Zrotation
         End Site
         {
          OFFSET 18.796788 0.000000 0.000000
         }
        }
       }
      }
     }
    }
   }
  }
 }
 JOINT RightHip
 {
  OFFSET -8.194923 0.005295 0.000540
  CHANNELS 3 Yrotation Xrotation Zrotation
  JOINT RightKnee
  {
   OFFSET 0.000000 -42.473320 -0.000511
   CHANNELS 3 Yrotation Xrotation Zrotation
   JOINT RightAnkle
   {
    OFFSET 0.000000 -41.474259 -0.000865
    CHANNELS 3 Yrotation Xrotation Zrotation
    JOINT RightToe
    {
     OFFSET 0.000000 -7.354994 16.712725
     CHANNELS 3 Yrotation Xrotation Zrotation
     End Site
     {
      OFFSET 0.000000 -1.553903 6.764158
     }
    }
   }
  }
 }
 JOINT LeftHip
 {
  OFFSET 8.194923 0.005295 0.000540
  CHANNELS 3 Yrotation Xrotation Zrotation
  JOINT LeftKnee
  {
   OFFSET 0.000000 -42.473320 -0.000511
   CHANNELS 3 Yrotation Xrotation Zrotation
   JOINT LeftAnkle
   {
    OFFSET 0.000000 -41.474259 -0.000865
    CHANNELS 3 Yrotation Xrotation Zrotation
    JOINT LeftToe
    {
     OFFSET 0.000000 -7.354994 16.712725
     CHANNELS 3 Yrotation Xrotation Zrotation
     End Site
     {
      OFFSET 0.000000 -1.553903 6.764158
     }
    }
   }
  }
 }
}
MOTION
Frames: 8
Frame Time: 0.016667
0.000000 91.111157 0.000000 0.000000 -5.826342 0.000000 0.000000 11.116423 0.000000 0.000000 -5.290081 0.000000 0.000000 0.000000 0.000000 0.000000 0.000000 0.000000 0.000000 12.665069 0.000000 0.000000 0.575450 0.000000 0.000000 0.000000 0.000000 0.000000 0.000000 0.000000 2.337306 0.000000 0.000000 -2.337306 0.000000 0.000000 0.000000 0.000000 0.000000 0.000000 0.000000 0.000000 -2.337306 0.000000 0.000000 2.337306 0.000000 0.000000 0.000000 8.578828 0.000000 0.000000 1.905768 0.000000 0.000000 -4.658254 0.000000 0.000000 0.000000 0.000000 0.000000 8.578828 0.000000 0.000000 1.905768 0.000000 0.000000 -4.658254 0.000000 0.000000 0.000000 0.000000
-71.431333 92.913368 57.130255 4.793570 -4.996259 -0.370113 -0.526313 2.930889 -0.715184 -0.229288 1.305812 -0.294654 -0.229288 1.305812 -0.294654 -0.171329 0.979470 -0.220491 -0.757200 17.725202 1.084835 -1.763267 -3.244375 2.256521 -3.401539 -1.900006 10.912010 2.958448 -0.976685 68.833335 22.319509 22.291403 15.785427 -4.065658 5.704959 -8.227288 -3.364590 -0.746867 -5.509914 -4.384546 -8.801065 -72.224244 -13.106104 24.781154 -16.863568 4.360973 3.186170 15.169875 -2.209539 6.318988 -1.693554 -2.482064 2.832452 -0.113900 -4.528820 -4.448639 1.367349 0.119903 -0.070446 0.065351 3.682430 6.785947 2.857768 -0.358653 4.907269 -1.011911 4.488022 -5.871996 -0.654311 -0.107461 0.027130 -0.087933
-71.403596 92.916305 57.130469 4.791357 -4.998798 -0.373731 -0.516346 2.943146 -0.727124 -0.223484 1.311366 -0.297887 -0.223484 1.311366 -0.297887 -0.166966 0.983634 -0.222926 -0.769404 17.716933 1.121286 -1.798285 -3.258492 2.328033 -3.418529 -1.936171 10.926722 3.041620 -0.915125 68.907950 22.254944 22.329322 15.753472 -4.094659 5.740735 -8.212945 -3.391570 -0.764657 -5.490825 -4.383663 -8.796257 -72.264871 -13.219124 24.761936 -16.955659 4.347109 3.189457 15.175020 -2.256023 6.303034 -1.706534 -2.456197 2.867799 -0.126308 -4.506452 -4.455316 1.378488 0.117486 -0.085219 0.072187 3.666931 6.800795 2.834658 -0.348167 4.891094 -1.009331 4.484762 -5.869340 -0.627079 -0.103690 0.022909 -0.082608
-71.378407 92.917911 57.134677 4.779047 -4.996729 -0.375023 -0.515949 2.954607 -0.727463 -0.222104 1.315930 -0.296365 -0.222104 1.315930 -0.296365 -0.165933 0.987056 -0.221786 -0.780313 17.706609 1.144917 -1.826638 -3.276760 2.375524 -3.409540 -1.972045 10.899179 3.123429 -0.847486 68.973920 22.187053 22.365616 15.727379 -4.111301 5.753992 -8.221501 -3.370751 -0.796090 -5.505155 -4.389425 -8.781992 -72.299604 -13.334900 24.764840 -17.063442 4.341602 3.199955 15.178281 -2.269099 6.293755 -1.719648 -2.455506 2.887732 -0.131395 -4.495450 -4.465051 1.384702 0.113928 -0.091258 0.077391 3.666381 6.830918 2.814073 -0.341574 4.843201 -1.007204 4.500791 -5.857858 -0.607617 -0.101039 0.022737 -0.075320
-71.345875 92.917101 57.137740 4.781980 -4.981831 -0.378665 -0.528286 2.962992 -0.731373 -0.226392 1.319257 -0.296164 -0.226392 1.319257 -0.296164 -0.169147 0.989553 -0.221624 -0.788025 17.696731 1.160370 -1.846326 -3.294487 2.406850 -3.384928 -1.993847 10.877115 3.156372 -0.805580 69.035249 22.100490 22.418925 15.694899 -4.125983 5.779625 -8.216701 -3.356488 -0.842457 -5.510904 -4.381764 -8.767104 -72.307719 -13.449445 24.763981 -17.208508 4.338589 3.206741 15.193653 -2.316725 6.285596 -1.746690 -2.443673 2.881179 -0.117050 -4.463578 -4.465112 1.391813 0.110422 -0.094570 0.074322 3.638798 6.850182 2.784345 -0.351083 4.786972 -1.001779 4.539053 -5.846406 -0.590676 -0.100710 0.028012 -0.064660
-71.310329 92.914710 57.137361 4.790921 -4.950271 -0.389617 -0.527014 2.963060 -0.735835 -0.225731 1.318944 -0.298095 -0.225731 1.318944 -0.298095 -0.168647 0.989319 -0.223074 -0.803213 17.690972 1.176628 -1.879974 -3.304327 2.442102 -3.409159 -2.015463 10.879069 3.169393 -0.763497 69.073092 22.028850 22.488909 15.679520 -4.121619 5.789425 -8.208550 -3.379525 -0.870718 -5.510147 -4.390447 -8.759930 -72.308881 -13.539628 24.780057 -17.326865 4.327914 3.220503 15.185189 -2.337606 6.263199 -1.765357 -2.428403 2.869244 -0.105939 -4.469155 -4.463452 1.409084 0.107819 -0.094171 0.069505 3.626385 6.845565 2.762400 -0.363221 4.738697 -0.996439 4.543409 -5.843344 -0.569418 -0.100062 0.037101 -0.056665
-71.264588 92.913104 57.134344 4.809750 -4.906638 -0.402759 -0.531707 2.959498 -0.749402 -0.227184 1.317164 -0.301434 -0.227184 1.317164 -0.301434 -0.169731 0.987985 -0.225576 -0.819809 17.685577 1.199767 -1.918544 -3.313253 2.490516 -3.457008 -2.036018 10.879598 3.167269 -0.716576 69.127302 21.929905 22.437532 15.628498 -4.130959 5.735694 -8.186087 -3.394911 -0.904864 -5.486978 -4.421296 -8.742228 -72.329701 -13.631922 24.819138 -17.430095 4.332058 3.224460 15.194245 -2.380767 6.229709 -1.789693 -2.402182 2.853752 -0.093836 -4.465645 -4.456613 1.436166 0.105149 -0.096452 0.061063 3.613640 6.821588 2.738682 -0.388366 4.702213 -1.001623 4.557403 -5.850457 -0.534872 -0.100399 0.048695 -0.050897
-71.214100 92.909457 57.129183 4.809048 -4.847048 -0.418585 -0.534571 2.946132 -0.753607 -0.228628 1.310478 -0.301976 -0.228628 1.310478 -0.301976 -0.170816 0.982972 -0.225982 -0.833635 17.681786 1.211195 -1.948004 -3.319583 2.516361 -3.491377 -2.026631 10.868665 3.148364 -0.671408 69.168617 21.888712 22.368915 15.581602 -4.138322 5.718427 -8.172658 -3.403692 -0.941585 -5.473532 -4.461826 -8.726461 -72.335734 -13.719268 24.863479 -17.537084 4.345250 3.245100 15.181691 -2.421168 6.168280 -1.808200 -2.333474 2.855941 -0.089128 -4.487193 -4.464825 1.458276 0.104431 -0.090980 0.063078 3.624335 6.760420 2.718971 -0.435751 4.706718 -1.010820 4.572512 -5.877743 -0.497145 -0.099350 0.058630 -0.046894
